<?xml version="1.0" standalone="no"?>
<!DOCTYPE svg PUBLIC "-//W3C//DTD SVG 20010904//EN"
 "http://www.w3.org/TR/2001/REC-SVG-20010904/DTD/svg10.dtd">
<svg version="1.0" xmlns="http://www.w3.org/2000/svg"
 width="300.000000pt" height="221.000000pt" viewBox="0 0 300.000000 221.000000"
 preserveAspectRatio="xMidYMid meet">
<metadata>
Created by potrace 1.10, written by Peter Selinger 2001-2011
</metadata>
<g transform="translate(0.000000,221.000000) scale(0.100000,-0.100000)"
fill="#000000" stroke="none">
<path d="M1261 1874 c-398 -58 -675 -223 -707 -422 -4 -25 0 -61 11 -98 14
-49 28 -69 88 -130 59 -58 91 -81 177 -122 199 -97 368 -133 660 -139 159 -4
231 -1 318 11 357 53 620 186 694 353 15 35 19 61 16 113 -3 58 -9 76 -41 124
-104 156 -366 273 -707 315 -115 15 -394 12 -509 -5z m269 -17 c0 -12 -94
-267 -105 -283 -22 -34 -68 -49 -314 -100 -185 -38 -229 -50 -205 -56 16 -4
126 -28 244 -53 205 -44 250 -59 277 -94 7 -9 31 -70 53 -136 23 -66 44 -126
47 -132 11 -29 -231 -5 -387 38 -41 11 -121 42 -177 69 -122 60 -200 130 -240
216 -61 133 8 280 180 383 142 84 374 145 570 150 31 0 57 0 57 -2z m290 -23
c256 -48 450 -158 525 -295 136 -251 -199 -513 -696 -546 -57 -3 -99 -2 -99 3
0 13 78 235 92 262 7 13 24 32 38 42 21 15 271 74 485 115 l40 8 -35 8 c-19 5
-123 27 -230 49 -235 49 -251 54 -278 83 -18 19 -112 262 -112 290 0 13 161 2
270 -19z m-251 -166 c47 -140 81 -167 254 -205 71 -16 128 -33 129 -38 0 -6
-44 -20 -98 -32 -207 -47 -226 -60 -274 -186 -18 -45 -35 -86 -40 -90 -4 -5
-16 13 -25 40 -37 103 -67 154 -103 178 -23 15 -84 34 -162 51 -69 15 -129 30
-134 34 -10 10 -1 13 141 44 165 37 193 56 232 159 10 29 24 64 30 80 6 15 15
27 20 27 5 0 19 -28 30 -62z m-815 -20 c-4 -7 -18 -27 -32 -45 -34 -46 -62
-126 -62 -178 0 -52 28 -132 62 -178 37 -49 44 -62 27 -52 -74 44 -130 113
-149 184 -22 82 21 176 112 249 44 35 53 39 42 20z m1628 -38 c131 -117 131
-251 0 -371 -54 -49 -94 -69 -54 -26 11 12 34 48 51 81 25 46 31 70 31 120 0
82 -13 122 -60 189 -22 32 -36 57 -32 57 5 0 33 -22 64 -50z"/>
<path d="M140 525 l0 -175 175 0 c189 0 228 8 259 51 27 38 21 96 -13 130
l-29 29 -156 0 -156 0 0 70 0 70 -40 0 -40 0 0 -175z m65 19 c12 -12 13 -19 4
-30 -18 -22 -29 -16 -29 16 0 34 3 36 25 14z m300 -84 l0 -25 -142 -3 -143 -3
0 31 0 31 143 -3 142 -3 0 -25z"/>
<path d="M630 524 l0 -175 41 3 40 3 2 173 2 172 -42 0 -43 0 0 -176z"/>
<path d="M1748 525 l3 -175 39 0 40 0 0 175 0 175 -42 0 -43 0 3 -175z"/>
<path d="M1870 632 c0 -37 0 -37 40 -37 40 0 40 0 40 37 0 38 0 38 -40 38 -40
0 -40 0 -40 -38z"/>
<path d="M998 561 c-177 -6 -188 -7 -211 -29 -33 -31 -41 -76 -22 -117 27 -55
47 -60 257 -60 l190 0 0 105 c0 81 -3 105 -14 106 -7 0 -97 -2 -200 -5z m132
-101 l0 -30 -140 0 c-116 0 -142 3 -146 15 -16 40 -1 45 146 45 l140 0 0 -30z"/>
<path d="M1495 560 c-99 -3 -187 -9 -196 -13 -36 -18 -55 -87 -35 -129 27 -57
45 -63 210 -65 l149 -2 -2 -65 -2 -66 45 0 46 0 0 175 c0 161 -1 175 -17 173
-10 -1 -99 -5 -198 -8z m132 -100 l0 -30 -139 0 c-145 0 -160 5 -144 45 4 12
30 15 144 15 l139 0 0 -30z m35 -82 c-4 -18 -6 -18 -20 -4 -13 13 -13 18 -2
31 16 20 30 3 22 -27z"/>
<path d="M1870 458 l0 -108 40 0 40 0 0 108 0 107 -40 0 -40 0 0 -107z"/>
<path d="M2723 560 c-180 -5 -183 -5 -209 -31 -43 -44 -34 -124 19 -159 17
-12 67 -16 215 -18 l192 -4 0 41 c0 39 -1 41 -32 41 l-32 0 32 33 c24 25 32
42 32 70 0 29 -4 37 -17 35 -10 -1 -100 -5 -200 -8z m167 -46 c0 -4 -9 -22
-21 -40 -16 -26 -18 -38 -10 -53 9 -16 8 -20 -7 -23 -9 -2 -27 -2 -39 0 l-23
4 26 31 c19 23 24 38 20 59 -5 26 -3 28 24 28 17 0 30 -3 30 -6z m-95 -54
c-28 -29 -31 -30 -122 -30 -97 0 -114 8 -99 45 4 12 28 15 128 15 l122 0 -29
-30z"/>
<path d="M2033 542 c-30 -24 -43 -63 -43 -133 l0 -60 43 3 42 3 -3 56 c-5 78
0 80 154 77 l129 -3 3 -68 3 -68 42 3 c26 2 42 8 41 16 -1 6 -2 39 -2 73 -2
53 -6 64 -31 90 l-29 29 -164 0 c-139 0 -166 -3 -185 -18z"/>
</g>
</svg>
